<svg width="9" height="12" viewBox="0 0 9 12" fill="none" xmlns="http://www.w3.org/2000/svg">
<path d="M4.50004 11.6238C4.37365 11.6238 4.26532 11.5877 4.17504 11.5155C4.08476 11.4432 4.01706 11.3485 3.97192 11.2311C3.80039 10.7255 3.58372 10.2516 3.32192 9.80922C3.06914 9.36685 2.71254 8.84776 2.25212 8.25192C1.79171 7.65609 1.41705 7.08734 1.12817 6.54567C0.848305 6.00401 0.708374 5.34949 0.708374 4.58213C0.708374 3.52588 1.074 2.63213 1.80525 1.90088C2.54553 1.1606 3.44379 0.790466 4.50004 0.790466C5.55629 0.790466 6.45004 1.1606 7.18129 1.90088C7.92157 2.63213 8.29171 3.52588 8.29171 4.58213C8.29171 5.40366 8.13372 6.08977 7.81775 6.64047C7.51081 7.18213 7.15421 7.71928 6.74796 8.25192C6.26046 8.90192 5.89032 9.44359 5.63754 9.87692C5.39379 10.3012 5.19067 10.7526 5.02817 11.2311C4.98303 11.3575 4.91081 11.4568 4.8115 11.529C4.72122 11.5922 4.6174 11.6238 4.50004 11.6238ZM4.50004 5.9363C4.87921 5.9363 5.19969 5.8054 5.4615 5.54359C5.7233 5.28179 5.85421 4.9613 5.85421 4.58213C5.85421 4.20297 5.7233 3.88248 5.4615 3.62067C5.19969 3.35887 4.87921 3.22797 4.50004 3.22797C4.12087 3.22797 3.80039 3.35887 3.53858 3.62067C3.27678 3.88248 3.14587 4.20297 3.14587 4.58213C3.14587 4.9613 3.27678 5.28179 3.53858 5.54359C3.80039 5.8054 4.12087 5.9363 4.50004 5.9363Z" fill="white"/>
</svg>
